Coordinates
version=1
nRows=11
nColumns=40
inDegrees=yes

Units are S.I. units (second, meters, Newtons, ...)
If the header above contains a line with 'inDegrees', this indicates whether rotational values are in degrees (yes) or radians (no).

endheader
time	pelvis_tilt	pelvis_list	pelvis_rotation	pelvis_tx	pelvis_ty	pelvis_tz	hip_flexion_r	hip_adduction_r	hip_rotation_r	knee_angle_r	knee_angle_r_beta	ankle_angle_r	subtalar_angle_r	mtp_angle_r	hip_flexion_l	hip_adduction_l	hip_rotation_l	knee_angle_l	knee_angle_l_beta	ankle_angle_l	subtalar_angle_l	mtp_angle_l	lumbar_extension	lumbar_bending	lumbar_rotation	arm_flex_r	arm_add_r	arm_rot_r	elbow_flex_r	pro_sup_r	wrist_flex_r	wrist_dev_r	arm_flex_l	arm_add_l	arm_rot_l	elbow_flex_l	pro_sup_l	wrist_flex_l	wrist_dev_l
      4.82000000	    -30.99912698	     -0.44306794	     -2.78106924	     -0.31884265	      0.68886647	     -0.88287182	     81.32172165	    -15.63551215	     -3.19024086	     84.78829885	      1.47983498	     30.72794584	      0.00000000	      0.00000000	     82.18498713	    -26.10756313	     -3.66940781	     85.27583055	      1.48834402	     31.79469425	      0.00000000	      0.00000000	    -14.25586452	     -0.11346300	     -9.41267992	     -5.42760494	    -43.44675158	     34.57986805	    107.91200661	     86.93816430	      0.00000000	      0.00000000	    -43.27401425	    -35.53393456	      3.07062012	    111.23630817	     87.77535915	      0.00000000	      0.00000000
      4.82500000	    -30.40305161	     -0.31913847	     -2.19905099	     -0.31535471	      0.69619990	     -0.88463792	     79.81992935	    -16.46832056	     -3.60868652	     83.83972084	      1.46327917	     30.19351662	      0.00000000	      0.00000000	     80.40611235	    -25.23236229	     -4.19620059	     84.07211404	      1.46733520	     31.10977116	      0.00000000	      0.00000000	    -13.97228596	      0.01443105	    -10.06496788	     -5.14092063	    -43.76429835	     34.91132953	    107.95718966	     86.92975155	      0.00000000	      0.00000000	    -43.20643104	    -35.53272620	      3.23863346	    111.26853897	     87.77506698	      0.00000000	      0.00000000
      4.83000000	    -29.55360254	     -0.34309714	     -2.24589264	     -0.31113906	      0.70451059	     -0.88470648	     77.88090067	    -16.49327495	     -4.09895400	     82.68351744	      1.44309962	     29.57369758	      0.00000000	      0.00000000	     78.29830362	    -25.29975454	     -4.84120608	     82.78852493	      1.44493234	     30.64473232	      0.00000000	      0.00000000	    -13.95560953	      0.08278796	    -10.07939796	     -4.82829927	    -44.05008737	     35.30016499	    108.03512044	     86.94913817	      0.00000000	      0.00000000	    -43.24140756	    -35.50151816	      3.25994099	    111.32092415	     87.77834052	      0.00000000	      0.00000000
      4.83500000	    -29.65046031	     -0.22148591	     -2.28618150	     -0.30888472	      0.71094693	     -0.88500656	     77.16979433	    -16.47702846	     -4.35105429	     81.43028997	      1.42122667	     29.08574697	      0.00000000	      0.00000000	     77.42892190	    -25.10620602	     -5.30145596	     81.71621870	      1.42621707	     30.10851511	      0.00000000	      0.00000000	    -12.90536054	      0.04296183	    -10.09102295	     -4.84035244	    -44.62540907	     35.40015424	    108.56688837	     86.96167407	      0.00000000	      0.00000000	    -43.70307674	    -35.58152063	      3.18761225	    111.70516445	     87.78646390	      0.00000000	      0.00000000
      4.84000000	    -28.11232658	     -0.42823006	     -2.94467833	     -0.30350900	      0.72111539	     -0.88311283	     74.33786249	    -15.67911280	     -4.86596668	     80.10273158	      1.39805641	     28.17112620	      0.00000000	      0.00000000	     74.29205914	    -26.17912073	     -6.43251922	     80.28780440	      1.40128654	     29.60846943	      0.00000000	      0.00000000	    -13.66803395	      0.07446127	     -9.62672373	     -4.25890485	    -44.82841937	     35.90818574	    109.02021093	     86.97434083	      0.00000000	      0.00000000	    -43.98795084	    -35.36327728	      2.61009991	    112.04544776	     87.78230238	      0.00000000	      0.00000000
      4.84500000	    -27.84038480	     -0.05364807	     -2.74800489	     -0.30101823	      0.72847735	     -0.88398728	     73.34180584	    -16.05661654	     -4.82952811	     78.94325100	      1.37781965	     27.41207876	      0.00000000	      0.00000000	     72.70697592	    -25.56338826	     -7.26148258	     78.79191005	      1.37517825	     29.47712633	      0.00000000	      0.00000000	    -12.95809503	     -0.29423492	    -13.65562798	      4.01621515	    -45.67872661	     44.73830539	    108.35603455	     86.90669287	      0.00000000	      0.00000000	    -48.97485291	    -31.29944014	     -2.57952614	    113.39766743	     87.85472759	      0.00000000	      0.00000000
      4.85000000	    -26.93053702	      0.08854840	     -2.90497520	     -0.29660861	      0.73783723	     -0.88383210	     71.30454919	    -16.01305111	     -5.08628899	     77.50987272	      1.35280248	     26.61803404	      0.00000000	      0.00000000	     70.27063917	    -25.61754072	     -8.33486886	     77.25046091	      1.34827489	     28.71082281	      0.00000000	      0.00000000	    -13.01358111	     -0.45732125	    -13.76630420	      4.35752581	    -46.10470064	     44.94985343	    109.21965952	     86.79295083	      0.00000000	      0.00000000	    -49.68676153	    -30.93118929	     -3.34414870	    114.05002927	     87.86899098	      0.00000000	      0.00000000
      4.85500000	    -26.70869821	      0.02093504	     -3.03674626	     -0.29379177	      0.74626312	     -0.88349614	     70.01739593	    -15.73474494	     -5.43835990	     75.99278337	      1.32632428	     25.61335095	      0.00000000	      0.00000000	     68.86598600	    -25.59504705	     -8.78228277	     75.64048111	      1.32017544	     27.66256192	      0.00000000	      0.00000000	    -12.37936752	     -0.35439619	    -13.80167068	      4.52630640	    -46.69593383	     44.93107520	    110.41384456	     86.79965863	      0.00000000	      0.00000000	    -50.41634870	    -30.73443888	     -3.98922552	    114.94926366	     87.86771801	      0.00000000	      0.00000000
      4.86000000	    -25.92924334	      0.26584439	     -2.95749372	     -0.29008925	      0.75560271	     -0.88417748	     68.19720059	    -16.02403567	     -5.65131527	     74.50597283	      1.30037454	     24.50243813	      0.00000000	      0.00000000	     66.63450195	    -25.15082268	     -9.69537280	     74.02301942	      1.29194541	     26.99869969	      0.00000000	      0.00000000	    -12.28925037	     -0.58835483	    -16.17045417	      9.54306168	    -47.07258912	     49.82589189	    110.65921933	     86.76224081	      0.00000000	      0.00000000	    -53.46637570	    -27.91070118	     -7.17595032	    116.20684670	     87.93398510	      0.00000000	      0.00000000
      4.86500000	    -25.33205402	      0.34988984	     -3.05690210	     -0.28642785	      0.76523747	     -0.88438259	     66.39572471	    -15.97508938	     -5.96266887	     72.76696657	      1.27002315	     23.43892214	      0.00000000	      0.00000000	     64.63061179	    -24.94974075	    -10.43454880	     72.31889037	      1.26220275	     25.87568647	      0.00000000	      0.00000000	    -12.08496675	     -0.64421595	    -16.29503825	      9.74666123	    -47.73143810	     49.53492268	    111.96263122	     86.71561149	      0.00000000	      0.00000000	    -54.40127772	    -27.43728701	     -8.03380094	    117.20031084	     87.93150763	      0.00000000	      0.00000000
      4.87000000	    -24.59557310	      0.57145928	     -2.81714415	     -0.28237856	      0.77548868	     -0.88566907	     64.40069314	    -16.41924437	     -6.32180567	     71.00929141	      1.23934593	     22.32573215	      0.00000000	      0.00000000	     62.34387598	    -24.22744181	    -11.21823659	     70.32033767	      1.22732142	     25.07925227	      0.00000000	      0.00000000	    -11.97714244	     -0.76659988	    -17.65139793	     12.02940075	    -48.24181007	     51.40974890	    112.73296760	     86.70267057	      0.00000000	      0.00000000	    -56.05811054	    -25.83601954	     -9.76494678	    118.25394225	     87.99233325	      0.00000000	      0.00000000
